<?xml version="1.0" encoding="UTF-8"?>
<svg id="Layer_1" data-name="Layer 1" xmlns="http://www.w3.org/2000/svg" viewBox="0 0 8202.11 1699.54">
  <defs>
    <style>
      .cls-1 {
        fill: #fff;
      }
    </style>
  </defs>
  <path class="cls-1" d="M2148.13,1541.78c-106.22,71.85-210.88,101.54-310.86,101.54-335.84,0-627.96-342.1-773.23-640.46,49.99-54.67,98.41-104.66,142.15-149.96C1706.05,335.85,2177.81,81.23,2337.14,110.91c23.43,4.69,23.43,21.87,23.43,24.99-4.69,34.37-15.62,60.92-23.43,74.98,21.87-24.99,78.1-82.79,76.54-140.58-1.56-28.12-24.99-70.3-65.6-70.3-246.81,0-699.81,299.92-1160.63,798.22-43.74,46.86-93.72,101.54-143.71,160.9-9.38-15.62-17.18-34.37-17.18-35.93,206.19-271.8,415.51-540.48,410.82-699.81-1.56-71.85-46.86-129.65-154.65-129.65C793.8,93.73-16.92,577.97,.27,937.25c1.56,43.74,45.3,85.91,104.65,87.47,60.92,1.56,137.47-39.05,137.47-49.99-18.74,6.25-49.99,12.5-68.73,12.5-28.12,0-53.11-6.25-59.36-24.99C45.57,748.24,829.73,124.97,1254.61,132.78c43.74,1.56,87.48,21.87,74.99,76.54-31.24,128.09-187.45,337.41-351.47,559.23-4.69-20.31-7.81-39.06-7.81-54.67,0-21.87,6.25-40.62,20.31-49.99,29.68-18.75-87.47-3.13-128.09,79.67-4.69,12.49-7.81,39.05-3.13,70.29,3.13,24.99,10.94,54.67,20.31,89.04-167.15,229.63-313.98,459.25-315.54,612.34,0,57.79,29.68,93.72,68.73,93.72,7.81,0,17.19-1.56,23.43-3.13-79.66-48.42,142.15-303.04,317.11-506.12,145.27,243.69,443.63,599.84,795.1,599.84,124.97,0,256.18-45.3,388.95-156.2,12.5-9.38,6.25-12.5-9.37-1.56Zm-1394.94-234.31c53.1-85.92,118.72-176.52,187.45-268.68l12.5,24.99c-73.42,84.35-143.72,168.7-199.95,243.68Z"/>
  <path class="cls-1" d="M1937.17,1293.41c-6.25-21.88,39.05-142.15,95.29-231.19,59.36-93.72,93.72-132.78,117.16-131.22,15.62,1.56,20.31,7.81,20.31,3.13-3.13-40.61-70.29-99.97-107.79-99.97-4.69,0-14.06,1.56-21.87,7.81-29.68,24.99-60.92,71.85-120.28,159.33-143.72,165.58-274.93,271.8-321.79,296.79,12.49-89.04,148.4-299.92,210.88-371.77,21.87-24.99,40.62-39.05,54.67-39.05,14.06,1.56,18.74,7.81,17.18,3.13-1.56-40.62-65.6-101.54-106.22-101.54-4.68,0-14.06,1.56-21.87,9.37-35.92,29.68-67.17,67.17-114.03,139.03-87.48,131.22-168.7,307.72-165.58,388.95,3.12,12.5,42.17,73.42,71.85,73.42,17.18,0,62.48-39.05,110.9-79.66,62.49-51.55,170.27-173.4,242.13-256.18-40.62,84.35-82.79,195.26-74.98,256.18,1.56,12.49,40.61,73.42,79.66,73.42,62.49,0,512.37-434.26,629.52-737.31,7.81-15.62,4.69-15.62-4.69-3.13-146.83,232.75-393.64,520.17-590.46,640.46Z"/>
  <path class="cls-1" d="M3797.52,974.74c-99.97,93.73-323.35,307.73-421.76,334.29,3.12-73.42,245.25-403.02,284.29-434.26,20.31-17.18-29.68-101.54-67.17-101.54-53.11,0-328.04,210.88-502.99,382.71-32.81,31.24-62.49,62.49-79.67,87.48,23.43-43.74,104.66-159.33,178.08-256.18,46.86-60.92,104.66-126.53,124.97-124.97,12.5,1.56,18.74,9.37,18.74,3.13,0-39.06-59.35-99.97-98.41-99.97-4.69,0-14.06,1.56-20.31,7.81-32.87,25.29-84.17,84.36-132.35,148.21-21,7.41-44.99,13.38-72.23,15.82-62.48,4.69-99.97-31.24-129.65-79.67-3.13-4.69-20.31-17.18-35.93-15.62-20.31,1.56-67.17,48.42-71.85,64.04-6.25,15.62,9.37,62.49,17.18,76.54-104.66,159.33-328.04,409.27-415.51,373.34-87.48-37.49,239-563.91,521.73-563.91,10.94,0,23.43,3.12,39.05,4.68,6.25,0,10.94,0,3.13-4.68-10.93-9.38-35.92-26.56-95.29-26.56-246.81,0-588.9,254.62-588.9,509.23,0,59.36,46.86,118.72,118.72,123.4,165.58,9.38,488.93-215.56,531.11-423.32,7.81,3.13,23.43,6.25,46.86,6.25,24.99,0,57.79-3.13,92.16-14.06,2.79-.91,5.52-1.93,8.28-2.91-.69,.97-1.39,1.94-2.08,2.91-51.55,71.85-110.91,164.02-148.4,237.43-39.06,71.85-46.87,114.04-43.74,124.97,12.5,45.3,49.99,95.29,96.85,84.35-23.43-10.94-12.49-53.11,29.68-103.1,17.19-21.87,35.93-45.3,56.24-65.61,115.59-124.96,345.22-313.97,473.31-371.77-81.23,73.42-262.43,334.29-262.43,423.32,0,17.19,10.93,40.62,28.11,60.92,15.63,18.74,32.81,32.81,48.43,32.81,93.72,0,348.34-257.75,484.24-406.14,4.69-4.69-3.13-17.18-12.49-9.38Z"/>
  <path class="cls-1" d="M8186.67,974.74c-99.97,95.29-328.04,315.54-429.58,338.98,0-68.74,243.7-407.71,282.75-438.95,20.3-17.18-31.25-101.54-65.61-101.54-65.61,0-362.41,288.99-509.24,474.87,0-54.67,140.58-279.61,220.26-363.96,15.63-15.62-35.92-93.72-67.17-93.72-3.13,0-6.25,0-9.38,1.56-65.6,14.06-403.02,318.66-502.99,451.44,35.94-60.92,173.4-265.56,240.57-342.1,20.3-24.99,42.17-40.61,53.11-39.05,12.49,1.56,18.74,9.37,18.74,3.13,0-39.06-59.36-99.97-98.41-99.97-4.69,0-14.06,1.56-20.3,7.81-17.19,14.06-39.06,35.93-60.92,62.49-22.33,26.4-45.2,55.68-67.98,86.74-20.32,6.95-43.42,12.47-69.43,14.8-62.49,4.69-99.97-31.24-129.65-79.67-3.13-4.69-20.31-17.18-35.94-15.62-20.3,1.56-67.16,48.42-71.85,64.04-6.25,15.62,9.38,62.49,17.19,76.54-104.66,159.33-328.04,409.27-415.52,373.34-87.47-37.49,239-563.91,521.73-563.91,10.94,0,23.44,3.12,39.06,4.68,6.25,0,10.92,0,3.13-4.68-10.94-9.38-35.94-26.56-95.29-26.56-161.68,0-364.22,109.27-484.73,256.21-71.02,52.09-141.23,89.24-194.74,93.7,51.55-121.84,181.21-235.88,215.57-271.8,10.94-12.5-53.11-79.67-70.29-78.1-32.81,3.13-79.67,29.67-140.6,73.42-134.33,96.85-290.54,228.06-373.33,335.84,32.8-57.79,87.47-131.21,129.65-187.45,46.86-62.49,101.54-123.4,124.97-121.84,12.49,1.56,17.17,9.37,17.17,3.13,0-39.06-59.35-99.97-96.85-99.97-6.25,0-12.49,1.56-21.86,7.81-39.05,31.24-106.22,110.91-160.9,190.58-8.37,11.93-16.89,24.24-25.46,36.76-161.95,131.9-417.95,320.95-524.37,320.95-34.36,0-48.42-10.93-46.86-29.68,4.69-40.61,34.36-90.6,62.49-123.4,174.95-4.68,474.87-229.62,474.87-326.48,0-43.74-71.85-79.66-95.29-79.66-67.16,0-206.2,48.42-335.84,156.2-59.39,49.96-111.86,105.61-152.44,161.46-104.74,95.34-233.63,204.82-302.08,224.38,0-12.5,6.25-31.24,15.63-53.11,46.86-99.97,187.45-270.24,195.26-254.62,6.25-18.74-46.86-104.66-78.1-89.04-39.05,21.87-140.58,120.28-168.71,145.27-81.22,68.73-299.92,226.5-351.47,243.68-4.69,1.56-7.81,1.56-10.94,0-14.05-7.81,103.1-204.63,251.5-331.16,101.54-85.92,215.57-151.52,306.17-156.21,46.86-3.13,76.55,20.31,76.55,67.17,0,23.43-9.38,42.17-17.19,56.24-1.56,1.56,1.56,3.13,4.69,1.56,15.63-20.31,29.67-46.86,29.67-73.42,0-73.42-78.1-98.41-137.46-98.41-141.67,0-300.35,84.68-424.92,190.9-86.03,23.72-216.21,69.69-363.88,152.75-15.63-14.06-53.11-39.05-46.86-65.6,20.3-73.42,262.42-221.82,334.28-215.57-3.13,31.24-107.79,140.59-112.47,140.59-1.56,0,1.56,6.24,3.13,6.24,42.17,0,140.58-93.72,142.15-115.59,4.69-45.3-15.63-117.15-59.36-117.15-137.46,0-362.39,117.15-387.39,235.87-14.06,68.73,78.11,124.97,95.29,146.83-54.67,21.87-284.29,153.08-288.98,220.25,7.81,34.37,24.99,62.49,59.36,62.49,101.54,0,307.73-82.79,329.59-184.33,4.69-32.8-34.36-78.1-54.67-93.72,85.38-50.91,205.71-96.72,302.7-130.33-102.99,99.46-173.08,209.64-173.08,284.98,0,31.24,40.61,90.6,68.74,104.66,3.13,1.56,10.92,4.69,14.05,4.69,65.61,0,370.22-262.43,417.08-309.29-29.67,39.05-71.86,110.9-90.6,168.7-6.25,23.43-12.5,42.17-12.5,57.8,0,28.12,29.69,60.92,51.55,73.42,10.94,6.25,18.75,9.38,26.56,9.38,59.65,0,184.45-105.67,302.35-220.76-3.1,6.46-6.06,12.88-8.74,19.25-12.5,34.36-21.86,65.6-21.86,103.09,0,42.18,62.47,98.42,110.9,98.42,168.84,0,405.77-197.05,551.5-329.56-41.53,64.02-80.68,130.51-106.33,188.97-18.74,35.93-26.55,65.61-23.42,79.67,10.94,43.74,48.42,92.16,93.72,81.23-34.36-15.63,59.36-153.08,139.02-239,106.22-117.15,179.65-179.64,323.36-263.99-40.61,46.86-90.6,137.46-90.6,181.2,0,18.74,46.86,73.42,74.97,73.42,52.19,0,123.04-41.04,185.46-87.62-39.65,62.54-63.67,129.73-63.67,196.96,0,59.36,46.86,118.72,118.72,123.4,165.58,9.38,488.93-215.56,531.1-423.32,7.81,3.13,23.44,6.25,46.86,6.25,25,0,57.8-3.13,92.17-14.06,2.17-.71,4.28-1.51,6.42-2.26-54.32,77.99-106.66,163.76-148.62,242.81-40.61,71.85-46.86,114.03-43.74,124.97,12.49,43.74,53.11,92.16,99.97,81.23-23.44-10.94-15.63-42.18,28.11-93.72,10.94-14.06,28.13-34.37,54.67-64.05,114.04-128.09,259.31-274.93,417.08-370.21-104.66,95.29-224.95,320.23-224.95,379.59,0,31.24,49.99,81.22,71.86,81.22,43.74,0,206.2-270.24,490.49-467.06-81.22,74.98-251.5,335.85-251.5,424.89,0,29.68,45.3,89.04,81.22,89.04,92.16,0,349.91-260.87,485.82-409.27,4.67-4.69-3.13-17.18-14.06-9.38Zm-2417.98-162.45c-9.38,59.35-268.67,312.41-404.58,328.04,51.55-82.79,231.2-271.8,404.58-328.04Zm-1788.49,515.48c45.3-45.3,160.9-123.4,254.62-176.52,0,59.36-193.7,159.33-254.62,176.52Z"/>
</svg>