<?xml version="1.0" encoding="utf-8"?>
<!-- Generator: Adobe Illustrator 27.0.0, SVG Export Plug-In . SVG Version: 6.00 Build 0)  -->
<svg version="1.1" id="Layer_1" xmlns="http://www.w3.org/2000/svg" xmlns:xlink="http://www.w3.org/1999/xlink" x="0px" y="0px"
	 viewBox="0 0 552.2 205.1" style="enable-background:new 0 0 552.2 205.1;" xml:space="preserve">
<style type="text/css">
	.st0{fill:#FFFFFF;}
</style>
<g>
	<path class="st0" d="M48.2,115.7c-11.6,0-19-3.1-19-8.6c0-8,21.5-19.9,25.2-19.9c0.1,0,0.3,0,0.4,0.1c-4.6,2.7-20.2,12.3-20.2,18.8
		c0,0.7,0.9,1.6,3.7,1.6c4.4,0,9.8-0.6,16-1.9c25.2-38.7,64.7-83.7,75.9-83.7c5.3,0,11.3,5.2,12.2,11.3c-1.2-1.6-2.8-2.1-4.2-2.1
		c-8.8,0-40.6,35.9-66,69.7C117.6,87,179.3,54.2,179.3,30.5c0-14.1-19.1-22-45.4-22c-52.4,0-119,44.5-119,63.8
		c0,6.1,7.1,9.8,11,10.1c0,0,0,0.1-2.4,0.1c-10.5,0-18.7-3-18.7-14.1c0-20.2,53.4-64.2,130.1-64.2c16,0,51.6,6.2,51.6,30.6
		c0,39-83.2,71.6-123.7,79.2c-13.9,19.4-24.2,36.5-24.2,42.6c0,2.8-0.1,5,2.5,5.5c-0.7,0.3-1.8,0.4-2.4,0.4c-4,0-6.5-3.7-6.5-9.2
		C32.3,145.3,38.7,131.4,48.2,115.7z"/>
	<path class="st0" d="M201.5,72.9c-26.8,0-57.8,50-49.5,53.5c8.3,3.4,29.5-20.3,39.5-35.5c-0.7-1.3-2.2-5.8-1.6-7.3
		c0.4-1.5,4.9-5.9,6.8-6.1c1.5-0.1,3.1,1,3.4,1.5c2.8,4.6,6.4,8,12.3,7.6c9.9-0.9,15.4-6.7,17.1-6.5c-0.7,2.1-6.7,7-13.9,9.3
		c-3.3,1-6.4,1.3-8.8,1.3c-2.2,0-3.7-0.3-4.4-0.6c-4,19.7-34.7,41.1-50.4,40.2c-6.8-0.4-11.3-6.1-11.3-11.7
		c0-24.2,32.5-48.4,55.9-48.4c5.6,0,8,1.6,9,2.5c0.7,0.4,0.3,0.4-0.3,0.4C203.8,73.2,202.6,72.9,201.5,72.9z"/>
	<path class="st0" d="M230.8,71.5c0.9-0.6,1.5-0.7,2.1-0.7c3.6,0,9.2,5.8,9.2,9.5c0,0.6-0.4-0.1-1.6-0.3c-2.2-0.1-7.4,5.6-11.9,11.6
		c-4,5.3-9.2,12.3-12.3,17.8c7.9-10.2,22.7-22.7,35.5-31.9c5.8-4.2,10.2-6.7,13.3-7c1.6-0.1,7.7,6.2,6.7,7.4
		c-3.3,3.4-15.6,14.2-20.5,25.8c7.1-0.6,17.4-7.3,26.6-15.4c0.1-0.1,1-0.3,1.2,0c-2.7,3.6-20.5,20.2-30.7,20.2c-2.7,0-7.1-5.2-7.1-7
		c0-4.2,4.7-12.8,8.6-17.2c-13.6,8-20.6,13.9-30.7,25.1c-7.6,8.2-16.5,21.2-13.2,22.7c-4.3,1-7.9-3.6-8.9-7.7
		c-0.3-1.3,0.4-4.2,2.2-7.6c3.7-8.5,10.4-18.7,16.3-27.1C220.7,82,227.1,74.4,230.8,71.5z"/>
	<path class="st0" d="M323.2,22.9c2.2-1.8,4.2-3,5.5-3c8.3-0.4,14.2,8.2,11.4,6.5c-4.7-2.2-13.5,9.6-20,18.1
		c23.9-1.2,55.2,0,76.4,4.5c1.2,0.3,1.8,0.6,0,0.4c-29.4-2.5-56.5-2.4-81.3,1.3c-5.5,6.8-10.4,14.2-16.3,23
		c-12.9,19.6-24,38.4-27.6,47.9c6.4,0.7,31-23.4,39.8-31.4c0.9-0.7,1.5,0.4,1,0.9c-7.3,8.3-33.1,35.3-42,38.6
		c-1.9,0.7-3.4,0.1-4.7-0.6c-1.2-0.6-4.5-3.7-5.3-5.9c-0.1-0.3-0.4-0.6-0.4-2.2c0-4.5,6.7-19,24.9-47.2c4-6.1,8.3-12.6,13.8-19.9
		c-14.1,2.8-22.8,9.9-19,12.2c-2.4,0-7.4-2.8-7.9-7.6c-0.6-6.7,15.7-10.8,32.3-12.8C315.3,30.7,319.5,25.9,323.2,22.9z"/>
	<path class="st0" d="M358.8,22.9c2.4-1.8,4.3-3,5.5-3c8.5-0.4,14.4,8.2,11.6,6.5c-5-2.4-14.8,11.6-21.1,19.6
		c-11.3,14.1-21.8,30.1-38.3,55.8l0.1,0.3c10.8-3.6,32.2-14.4,39.6-20.6c0.1-0.3,0.3-0.4,0.6-0.4c0.4,0,0.7,0.4,0.7,0.7
		c0,0.1,0,0.3,0,0.3c-4.6,4.5-18.8,13.5-31.1,20c-2.8,1.5-7.9,4-10.1,4.5c1,3,2.1,8.8,2.1,14.8c0,2.8-0.3,5.8-0.7,8.5
		c-8.2,42.3-45.2,71.6-51.6,71.9h-0.4c-3,0.1-6.5-4.9-6.7-7.4c-0.4-8.3,16.8-47.2,40.9-88.1c-4-3.3,1.8-11.1,6.2-11.1
		c14.1-22.5,29.1-44.1,40.5-58.7C351.1,30.7,355.4,25.9,358.8,22.9z M270.2,192.3c17.5-13.1,40.2-36.3,45.2-67.5
		c0.3-1.5,0.4-3.3,0.4-5.2c0-4.7-0.9-10.2-2.8-12.8C296,134.2,275.3,175.6,269,191c-0.6,1.2-0.6,1.9-0.3,1.9
		C269,193.1,269.3,192.9,270.2,192.3z"/>
	<path class="st0" d="M389.5,72.9c-26.8,0-57.8,50-49.5,53.5c8.3,3.4,29.5-20.3,39.5-35.5c-0.7-1.3-2.2-5.8-1.6-7.3
		c0.4-1.5,4.9-5.9,6.8-6.1c1.5-0.1,3.1,1,3.4,1.5c2.8,4.6,6.4,8,12.3,7.6c9.9-0.9,15.4-6.7,17.1-6.5c-0.7,2.1-6.7,7-13.9,9.3
		c-3.3,1-6.4,1.3-8.8,1.3c-2.2,0-3.7-0.3-4.4-0.6c-4,19.7-34.7,41.1-50.4,40.2c-6.8-0.4-11.3-6.1-11.3-11.7
		c0-24.2,32.5-48.4,55.9-48.4c5.6,0,8,1.6,9,2.5c0.7,0.4,0.3,0.4-0.3,0.4C391.7,73.2,390.5,72.9,389.5,72.9z"/>
	<path class="st0" d="M438.4,36.4c4.5-5.8,8.6-10.5,12.3-13.5c2.2-1.8,4.2-3,5.5-3c8.3-0.4,14.2,8.2,11.4,6.5
		c-5.2-2.4-14.8,11.6-21.4,19.6c-6.4,8.2-12.5,16.9-19.9,27.7c-12.9,19.6-24,38.4-27.6,47.9c6.4,0.7,31-23.4,39.8-31.4
		c0.9-0.7,1.5,0.4,1,0.9c-7.3,8.3-33.1,35.3-42,38.6c-1.9,0.7-3.4,0.1-4.7-0.6c-1.2-0.6-4.5-3.7-5.3-5.9c-0.1-0.3-0.4-0.6-0.4-2.2
		c0-4.5,6.8-18.8,24.9-47.2C421.2,59.4,430.7,46.5,438.4,36.4z"/>
	<path class="st0" d="M426.7,129.9c-2.4-0.7-6.1-4.5-6.1-7.1c0-8.6,21.5-40.9,31-48.5c0.7-0.7,1.6-0.9,2.2-0.9
		c3.4,0,9.3,5.9,9.3,9.6c0,0.6-0.7-0.1-1.9-0.3c-6.1-0.6-26.4,33.2-28.2,39.3c9-2.4,30.7-23,39.8-31.7c1-0.7,1.8,0.4,1.3,0.9
		c-12.9,13.9-36.5,38.1-45.7,38.9C427.9,130,427.5,130,426.7,129.9z M476.3,55.4c1.3,1.5,2.2,3.7,1.6,3.7c-0.3,0-1.5-0.6-3.1,0.1
		c-2.5,1-9.3,7.1-11.1,9.6c-2.1,2.7-5.2-0.4-5.3-3.1c-0.1-4.3,5.5-13.9,9.3-15.1C471.1,50.2,474.3,53.2,476.3,55.4z"/>
	<path class="st0" d="M517.5,72.9c-26.8,0-57.8,50-49.5,53.5c8.3,3.4,29.5-20.3,39.5-35.5c-0.7-1.3-2.2-5.8-1.6-7.3
		c0.4-1.5,4.9-5.9,6.8-6.1c1.5-0.1,3.1,1,3.4,1.5c2.8,4.6,6.4,8,12.3,7.6c9.9-0.9,15.4-6.7,17.1-6.5c-0.7,2.1-6.7,7-13.9,9.3
		c-3.3,1-6.4,1.3-8.8,1.3c-2.2,0-3.7-0.3-4.4-0.6c-4,19.7-34.7,41.1-50.4,40.2c-6.8-0.4-11.3-6.1-11.3-11.7
		c0-24.2,32.5-48.4,55.9-48.4c5.6,0,8,1.6,9,2.5c0.7,0.4,0.3,0.4-0.3,0.4C519.7,73.2,518.5,72.9,517.5,72.9z"/>
</g>
</svg>
